<svg xmlns="http://www.w3.org/2000/svg" viewBox="0 0 381.38 87.32"><defs><style>.cls-1{fill:#1f2f55;}.cls-2{fill:#ef7918;}</style></defs><g id="Livello_2" data-name="Livello 2"><g id="Livello_1-2" data-name="Livello 1"><path class="cls-1" d="M44.77,3.11l-.39-1H31.45l-.4,1L.82,82.57,0,84.74H14.4l.38-1,6.54-18H51.64l-.88-2.19a19.18,19.18,0,0,0-3.77-6,9.86,9.86,0,0,0-7.52-2.86H25.31l12.2-33.12L60.24,83.69l.38,1H75.83L75,82.57Z"/><path class="cls-1" d="M124.34,40.34a18.59,18.59,0,0,0,3.71-3.26A20.86,20.86,0,0,0,131,32.7,24.61,24.61,0,0,0,132.78,28a18.47,18.47,0,0,0,.63-4.61,21.09,21.09,0,0,0-1.94-8.92,19.72,19.72,0,0,0-5.89-7.31,29.16,29.16,0,0,0-9.64-4.76A47,47,0,0,0,102.62.66a114.92,114.92,0,0,0-12.11.61c-3.83.4-8,1-12.41,1.82l-1.31.24V84.74H90.94V46.92h11.68a38.82,38.82,0,0,1,8.42.89,20,20,0,0,1,6.62,2.69A13.56,13.56,0,0,1,122,55a12.1,12.1,0,0,1,1.57,6.26,13.48,13.48,0,0,1-1.08,5.34,14,14,0,0,1-7.26,7.35A12.39,12.39,0,0,1,110.12,75c-1.06,0-1.94,0-2.63-.06a23,23,0,0,1-2.31-.25,12.62,12.62,0,0,0-2.08-.18,9.15,9.15,0,0,0-5.73,1.88,20,20,0,0,0-4.77,5.26l-1.17,1.9,2.17.5a75.7,75.7,0,0,0,9.2,1.62c2.58.26,5,.39,7.32.39a29.8,29.8,0,0,0,11.82-2.26,29,29,0,0,0,8.91-5.85,24.92,24.92,0,0,0,5.6-8.11,23.2,23.2,0,0,0,1.92-9.1,20.43,20.43,0,0,0-3.89-12.37A26.24,26.24,0,0,0,124.34,40.34Zm-5.55-17a12.54,12.54,0,0,1-1,5,11.47,11.47,0,0,1-3,4,14.41,14.41,0,0,1-5,2.75,23.14,23.14,0,0,1-7.12,1H90.94V12.45c1.63-.15,3.34-.26,5.12-.35,2.31-.1,4.52-.16,6.56-.16,5.43,0,9.55,1.13,12.25,3.35A10,10,0,0,1,118.79,23.35Z"/><polygon class="cls-1" points="146.72 2.82 146.25 2.08 145.37 2.08 132.91 2.08 130.02 2.08 131.56 4.53 160.04 49.83 160.04 83.14 160.04 84.74 161.64 84.74 172.37 84.74 173.97 84.74 173.97 83.14 173.97 46.3 173.97 45.84 173.72 45.45 146.72 2.82"/><path class="cls-2" d="M173.65,43.59a22.83,22.83,0,0,1-2.14-3.25,15.64,15.64,0,0,1-1.51-4,13.09,13.09,0,0,1-.22-4.52A12.58,12.58,0,0,1,171.49,27L186.76,1.18h18.1L175.81,46.32Z"/><path class="cls-2" d="M203.22,2.08l-1.58,2.46-24.7,38.37-1.21,1.88L174.35,43a21,21,0,0,1-2-3.12,14.52,14.52,0,0,1-1.43-3.74,12.06,12.06,0,0,1-.2-4.21,11.67,11.67,0,0,1,1.59-4.5L186.8,2.86l.47-.78h15.95M206.5.29H186.25l-.52.88-.47.78-14.53,24.6a13.4,13.4,0,0,0-1.84,5.2,13.92,13.92,0,0,0,.24,4.83,16.26,16.26,0,0,0,1.6,4.19A23.11,23.11,0,0,0,173,44.14l1.38,1.76,1.55,2,1.36-2.1,1.21-1.88L203.14,5.51l1.59-2.46L206.5.29Z"/></g><g id="Livello_2-2" data-name="Livello 2"><path class="cls-2" d="M227,83.88a5.8,5.8,0,0,1-5.3-3c-1.09-1.87-1.63-4.52-1.63-8.1A84.63,84.63,0,0,1,222,56.37q-1.78,2.57-3.87,6.05-2.73,4.52-5.28,8.69c-2.46,4-4.11,6.72-4.92,8.1a8.41,8.41,0,0,1-2.11,2.8c-.16.15-.36.32-.59.55-.91.84-2.61,1.25-5.22,1.25a4.79,4.79,0,0,1-4.31-2.66,6,6,0,0,1-.69-3.32c0-8.6,4-21.6,14.4-46.39,4.68-11.23,7.44-18.2,8.2-20.72.75-2.68,1.49-4.31,2.32-5.12,1-1,3.09-2.49,4.7-2.49,2.61,0,2.61,2.53,2.61,4,0,2-.74,5-2.26,9-1.66,4.43-4.36,10.79-8,18.89-2.49,5.55-4.28,9.76-5.31,12.52-3.63,10.65-6,18.55-7.14,23.56,1.34-1.8,2.58-3.56,3.7-5.25s3.67-5.78,7.93-12.61l4.93-7.84c3.63-5.78,6.08-9.54,7.29-11.17,2.13-3,4.34-4.48,6.57-4.48,2.69,0,3,1.73,3,2.48a7.18,7.18,0,0,1-.9,3.1c-.38.73-1.46,3.35-3.22,7.77a77.51,77.51,0,0,0-4.07,15,60.65,60.65,0,0,0-1,10c0,.8,0,1.69.14,2.65,0,.36.08.74.13,1.13a59.62,59.62,0,0,0,3.73-6.28c1.77-3.52,4.54-9.19,8.22-16.83,3.51-7.36,7.68-15.1,12.39-23A170.37,170.37,0,0,1,267.21,6C270,2.51,272.1.89,273.94.89a3.2,3.2,0,0,1,2.48,1.28,3.12,3.12,0,0,1,.79,2.1c0,.71-.45,2-3.79,6.14A174.37,174.37,0,0,0,260,29.66c-4.87,8.13-11.06,19.87-18.4,34.89-3.28,6.76-5.83,11.64-7.58,14.51C232,82.26,229.65,83.88,227,83.88Z"/><path class="cls-2" d="M273.94,1.79a2.34,2.34,0,0,1,1.8,1,2.31,2.31,0,0,1,.58,1.52q0,1.13-3.6,5.58a177,177,0,0,0-13.51,19.34q-7.36,12.3-18.43,35-4.93,10.14-7.54,14.43T227,83a4.94,4.94,0,0,1-4.53-2.57c-1-1.71-1.5-4.25-1.5-7.64a92.64,92.64,0,0,1,2.78-20.24A82.05,82.05,0,0,0,217.35,62q-2.72,4.5-5.27,8.68-3.72,6-4.93,8.12a8.71,8.71,0,0,1-2.55,3.15c-1,.9-3.28,1-4.6,1a3.91,3.91,0,0,1-3.52-2.19,5.17,5.17,0,0,1-.58-2.9c0-9,4.66-22.92,14.32-46q7.08-17,8.23-20.81t2.09-4.74c.93-1,2.85-2.23,4.08-2.23,1.7,0,1.72,1.56,1.72,3.13,0,1.92-.74,4.84-2.2,8.75q-2.5,6.65-8,18.83-3.76,8.4-5.33,12.57Q203.72,68.05,203,74.64q3.36-4.27,6-8.23,1.5-2.31,7.94-12.63l4.93-7.84q5.44-8.69,7.24-11.11,3-4.11,5.86-4.11c1.39,0,2.09.52,2.09,1.57A6.44,6.44,0,0,1,236.2,35c-.39.75-1.47,3.37-3.25,7.84a78.46,78.46,0,0,0-4.12,15.23,61.22,61.22,0,0,0-1,10.2c0,.83.05,1.74.14,2.74s.24,2.09.44,3.3a49.2,49.2,0,0,0,5.1-8.12q2.67-5.31,8.23-16.87,5.28-11,12.35-22.95A171.69,171.69,0,0,1,267.91,6.52q3.76-4.72,6-4.73m0-1.79c-2.13,0-4.49,1.72-7.43,5.41a172.21,172.21,0,0,0-14,20.05c-4.72,7.94-8.9,15.71-12.42,23.09-3.67,7.64-6.44,13.3-8.22,16.83-.78,1.49-1.54,2.83-2.26,4,0-.39,0-.77,0-1.13a59.85,59.85,0,0,1,1-9.9,77.59,77.59,0,0,1,4-14.88c2.18-5.47,2.93-7.19,3.18-7.67a8.15,8.15,0,0,0,1-3.53c0-1.62-1-3.36-3.88-3.36-2.53,0-5,1.63-7.31,4.86-1.22,1.65-3.62,5.32-7.31,11.2l-4.93,7.84c-4.26,6.84-6.93,11.08-7.92,12.6-.3.46-.62.92-.94,1.39q2-7.15,6-18.92c1-2.74,2.81-6.93,5.29-12.45,3.67-8.11,6.37-14.49,8-18.94,1.56-4.15,2.32-7.21,2.32-9.37,0-1.34,0-4.92-3.51-4.92-2,0-4.32,1.69-5.35,2.77-.94.93-1.74,2.68-2.54,5.51-.74,2.45-3.49,9.4-8.16,20.6-10.41,24.9-14.46,38-14.46,46.73a6.83,6.83,0,0,0,.81,3.77A5.71,5.71,0,0,0,200,84.71c2.84,0,4.75-.49,5.82-1.49l.59-.55a9.32,9.32,0,0,0,2.29-3c.79-1.36,2.45-4.08,4.9-8.07q2.55-4.18,5.28-8.7c.49-.81,1-1.58,1.42-2.32a76.14,76.14,0,0,0-1.14,12.22c0,3.75.57,6.54,1.75,8.55A6.7,6.7,0,0,0,227,84.78c3,0,5.62-1.77,7.78-5.25,1.76-2.9,4.33-7.8,7.62-14.59,7.33-15,13.51-26.71,18.37-34.83A173.16,173.16,0,0,1,274.11,11c3.69-4.57,4-5.82,4-6.71a4.13,4.13,0,0,0-1-2.69A4.09,4.09,0,0,0,273.94,0Z"/><path class="cls-2" d="M295.78,84a4.3,4.3,0,0,1-3.86-2.43,8,8,0,0,1-.92-4.11,111.79,111.79,0,0,1,2.78-21.79c.8-3.67,1.43-6.65,1.88-8.89a128,128,0,0,0-20.32,5.58c-3.48,5-7.35,11-11.52,18l-3.07,5.23c-.29.51-.85,1.33-1.5,2.27s-1.21,1.78-1.75,2.62c-1.39,2.33-2.95,3.52-4.64,3.52a3.31,3.31,0,0,1-2.52-1.15,3,3,0,0,1-1-2.23c0-1.15,1.37-3.68,5.21-10.22,1.61-2.7,4-6.52,7.22-11.37.62-.95,1.19-1.82,1.68-2.6-1.42.46-2.76,1-4,1.49a6.71,6.71,0,0,1-2.67.69,2.89,2.89,0,0,1-2.55-1.43,3.18,3.18,0,0,1-.6-1.94,3.72,3.72,0,0,1,1.84-3.49,40.24,40.24,0,0,1,8.3-3.18,65.21,65.21,0,0,0,6.6-2.36c.88-1.09,3-3.92,6.21-8.41,1.5-2.11,5.62-6.93,12.59-14.74A209.35,209.35,0,0,1,304.54,7.28c3.25-3,5.75-4.53,7.62-4.53a4.36,4.36,0,0,1,3.27,1.47,4.47,4.47,0,0,1,1.16,3,18.14,18.14,0,0,1-1.69,5.87c-1.83,4.58-3.62,9.55-5.31,14.76-1.24,4-2.15,7.15-2.69,9.52l.19,0h.06c1.13,0,2.07,0,2.81,0,3.71,0,4.26,2.11,4.26,3.37a4.57,4.57,0,0,1-.89,2.63,3.77,3.77,0,0,1-2.17,1.62A7.63,7.63,0,0,1,309,45a25.65,25.65,0,0,0-4.24.27c-.92,2.92-2.33,9.59-4.21,19.86A122.27,122.27,0,0,0,299.16,79C299.16,83.15,297.32,84,295.78,84Zm9.55-67.3a46.76,46.76,0,0,0-5.16,4.65c-8.1,8.48-14.13,15.64-18,21.34,1.67-.45,4-1.11,7-2,1.32-.37,4.19-1,8.54-1.94.41-1.33,1.24-4,2.5-8.23.36-1.26,1.24-3.71,2.69-7.45Q304.32,19.45,305.33,16.71Z"/><path class="cls-2" d="M312.16,3.65a3.43,3.43,0,0,1,2.61,1.18,3.55,3.55,0,0,1,.93,2.37,17.76,17.76,0,0,1-1.62,5.53q-2.79,6.93-5.34,14.83-2.21,7-2.95,10.71a13,13,0,0,0,1.39-.05c1.12,0,2.05-.06,2.78-.06,2.24,0,3.36.83,3.36,2.48a3.7,3.7,0,0,1-.72,2.12A2.87,2.87,0,0,1,311,44a8.56,8.56,0,0,1-1.92.12,22.77,22.77,0,0,0-4.92.39q-1.39,4-4.41,20.47a120,120,0,0,0-1.43,14q0,4.07-2.49,4.06a3.39,3.39,0,0,1-3.08-2,7.11,7.11,0,0,1-.81-3.67,109.87,109.87,0,0,1,2.76-21.6q1.46-6.66,2.15-10.21a129.13,129.13,0,0,0-22,6q-5.34,7.61-11.71,18.27L260,75.15c-.54.94-2.11,3.1-3.23,4.86-1.24,2.07-2.53,3.1-3.89,3.1a2.39,2.39,0,0,1-1.85-.84,2.27,2.27,0,0,1-.76-1.64c0-1,2.2-4.84,5.09-9.76q2.39-4,7.19-11.34,1.86-2.82,3-4.62a50,50,0,0,0-6.38,2.2,6,6,0,0,1-2.32.62,2,2,0,0,1-1.79-1,2.36,2.36,0,0,1-.47-1.46,2.87,2.87,0,0,1,1.39-2.71,39.77,39.77,0,0,1,8.12-3.1,66.76,66.76,0,0,0,6.9-2.48q1.21-1.47,6.38-8.63,2.21-3.11,12.52-14.66A208,208,0,0,1,305.15,7.93q4.58-4.27,7-4.28m-5,10.66a43.43,43.43,0,0,0-7.65,6.42q-13.69,14.33-19.31,23.41,2.14-.51,9.22-2.54c1.35-.38,4.34-1.05,9-2q.52-1.64,2.67-8.74.53-1.86,2.67-7.39,2.14-5.69,3.42-9.13m5-12.45c-2.14,0-4.76,1.52-8.23,4.77A211.28,211.28,0,0,0,288.5,22.49c-7,7.81-11.12,12.66-12.64,14.8-3.07,4.27-5.1,7-6,8.2-1.59.68-3.72,1.43-6.32,2.24A40.82,40.82,0,0,0,255,51a4.56,4.56,0,0,0-2.27,4.25,4.15,4.15,0,0,0,.78,2.47,3.78,3.78,0,0,0,3.27,1.79,7.59,7.59,0,0,0,3-.77c.47-.2,1-.4,1.46-.59l-.26.4c-3.19,4.86-5.63,8.7-7.23,11.4-4.08,6.92-5.34,9.3-5.34,10.68a4,4,0,0,0,1.25,2.88,4.16,4.16,0,0,0,3.14,1.39c2,0,3.85-1.33,5.42-4,.5-.78,1.14-1.72,1.71-2.55s1.23-1.79,1.54-2.34l3.07-5.23c4.08-6.82,7.89-12.78,11.32-17.7a123.4,123.4,0,0,1,18.6-5.17c-.43,2-1,4.56-1.61,7.55a112.28,112.28,0,0,0-2.81,22A8.78,8.78,0,0,0,291.16,82a5.11,5.11,0,0,0,4.62,2.86c1.28,0,4.28-.57,4.28-5.85a116.71,116.71,0,0,1,1.4-13.76c1.77-9.64,3.12-16.08,4-19.19a28.67,28.67,0,0,1,3.55-.17,9,9,0,0,0,2.39-.18,4.7,4.7,0,0,0,2.65-2,5.48,5.48,0,0,0,1-3.14c0-1-.37-4.27-5.15-4.27l-1.91,0c.55-2.2,1.35-5,2.4-8.3,1.67-5.19,3.45-10.14,5.29-14.71,1.19-2.9,1.75-4.87,1.75-6.19a5.33,5.33,0,0,0-1.36-3.54l0,0,0,0a5.25,5.25,0,0,0-3.92-1.76Zm-27.8,39.32A187.51,187.51,0,0,1,300.82,22c.83-.86,1.66-1.66,2.49-2.41-.39,1-.79,2.1-1.23,3.25-1.45,3.76-2.34,6.23-2.71,7.54C298.25,34,297.48,36.58,297,38c-4.13.87-6.78,1.48-8.07,1.84l-4.6,1.3Z"/><path class="cls-1" d="M330.14,86.42c-2.3,0-3.62-1.25-3.62-3.43,0-2,1.22-5.79,3.72-11.63a149.14,149.14,0,0,1,10.56-20.2c1.48-2.36,2.75-4.42,3.83-6.17-2,1.79-4.14,3.71-6.48,5.74a74.55,74.55,0,0,1-6.7,5.25,11.59,11.59,0,0,1-6.82,2.3c-2.56,0-4.52-1.3-5.84-3.87a9.31,9.31,0,0,1-1-4.3c0-4.87,2-11,6-18.08a79.83,79.83,0,0,1,14.72-18.48c7.23-7,11.39-10.47,14.1-10.47a3.13,3.13,0,0,1,2.25.93,3.2,3.2,0,0,1,.91,2.28,4.14,4.14,0,0,1-1.47,3.26,21.8,21.8,0,0,1-2.85,2,36.68,36.68,0,0,0-5.35,4.82c-1,1-2,2-3,3a62.29,62.29,0,0,0-12,15.61c-3.24,6.12-4.88,10.46-4.88,12.89a1.52,1.52,0,0,0,.34,1,1.3,1.3,0,0,0,1.14.61c.71,0,2.56-.51,7-3.93a82.28,82.28,0,0,0,10.22-8.87,259.1,259.1,0,0,0,17.16-19.5c3.66-4.83,6.79-8.76,9.31-11.66,2.36-2.71,4.14-4,5.61-4A3.24,3.24,0,0,1,379.68,3a4.39,4.39,0,0,1,.81,2.61c0,1.54-.79,3.27-2.4,5.29-10.42,13.31-17.41,22.5-20.78,27.31a163.61,163.61,0,0,0-13.32,23c-4.33,9-7,15.1-7.89,18.09s-1.83,4.86-2.73,5.74A4.51,4.51,0,0,1,330.14,86.42Z"/><path class="cls-1" d="M377,2.35a2.4,2.4,0,0,1,2,1.13,3.56,3.56,0,0,1,.63,2.09q0,2-2.2,4.73-15.7,20.09-20.81,27.35a164.2,164.2,0,0,0-13.4,23.18Q336.63,74.48,335.24,79q-1.33,4.23-2.49,5.36a3.69,3.69,0,0,1-2.61,1.13c-1.82,0-2.73-.85-2.73-2.54s1.22-5.6,3.66-11.28a146.1,146.1,0,0,1,10.49-20.07q5.28-8.46,7.13-11.62-4.57,4.35-11.13,10A76.63,76.63,0,0,1,331,55.25a10.81,10.81,0,0,1-6.32,2.14,5.45,5.45,0,0,1-5-3.38,8.4,8.4,0,0,1-.93-3.9q0-7.09,5.91-17.65a79.16,79.16,0,0,1,14.55-18.27C345.27,8.29,350.06,4,352.61,4a2.29,2.29,0,0,1,1.63.68,2.32,2.32,0,0,1,.63,1.64,3.27,3.27,0,0,1-1.16,2.59A19.31,19.31,0,0,1,351,10.74c-2.17,1.32-5.3,4.86-8.5,7.91a63,63,0,0,0-12.18,15.84q-5,9.42-5,13.31a2.4,2.4,0,0,0,.53,1.52,2.17,2.17,0,0,0,1.85,1q2.21,0,7.54-4.11a83.15,83.15,0,0,0,10.32-9,258.62,258.62,0,0,0,17.22-19.57q5.5-7.27,9.28-11.61c2.12-2.45,3.77-3.67,4.93-3.67m0-1.79c-1.77,0-3.71,1.32-6.28,4.28s-5.68,6.87-9.36,11.71A254.7,254.7,0,0,1,344.26,36a81.63,81.63,0,0,1-10.09,8.77c-4.52,3.49-6.09,3.76-6.47,3.76a.41.41,0,0,1-.4-.22l0,0,0,0a.68.68,0,0,1-.15-.43c0-1.57.83-5,4.78-12.47a61.13,61.13,0,0,1,11.83-15.39c1-1,2-2,3-3a36.77,36.77,0,0,1,5.18-4.69,22.36,22.36,0,0,0,2.95-2,5.09,5.09,0,0,0,1.79-3.95,4.12,4.12,0,0,0-1.12-2.87l0,0,0,0a4,4,0,0,0-2.87-1.19c-3,0-7.16,3.46-14.72,10.72A80.86,80.86,0,0,0,323,31.59C318.88,39,316.87,45,316.87,50.11A10.13,10.13,0,0,0,318,54.82c1.84,3.6,4.62,4.36,6.63,4.36A12.58,12.58,0,0,0,332,56.7a76.34,76.34,0,0,0,6.74-5.29l1.9-1.66-.59.94A149.76,149.76,0,0,0,329.42,71c-3.4,7.93-3.8,10.64-3.8,12,0,2.67,1.73,4.33,4.52,4.33A5.47,5.47,0,0,0,334,85.68c1-1,1.95-2.92,3-6.1.9-3,3.54-9,7.84-18a164,164,0,0,1,13.26-22.93c3.35-4.78,10.33-14,20.75-27.26,1.73-2.18,2.58-4.09,2.58-5.84a5.29,5.29,0,0,0-1-3.12A4.14,4.14,0,0,0,377,.56Z"/></g></g></svg>